HIERARCHY
ROOT Hips
{
	OFFSET 0.000000 88.474243 0.000000
	CHANNELS 6 Xposition Yposition Zposition Zrotation Yrotation Xrotation 
	JOINT Hips_Spine
	{
		OFFSET 0.000000 0.000000 0.000000
		CHANNELS 3 Zrotation Yrotation Xrotation
		JOINT Spine
		{
			OFFSET 0.005100 8.711998 -0.691000
			CHANNELS 3 Zrotation Yrotation Xrotation
			JOINT Spine1
			{
				OFFSET -0.009200 8.660301 -1.275000
				CHANNELS 3 Zrotation Yrotation Xrotation
				JOINT Spine2
				{
					OFFSET 0.006300 9.852501 -1.857000
					CHANNELS 3 Zrotation Yrotation Xrotation
					JOINT Spine2_Neck
					{
						OFFSET 0.000000 0.000000 0.000000
						CHANNELS 3 Zrotation Yrotation Xrotation
						JOINT Neck
						{
							OFFSET 0.016300 11.420799 -0.263300
							CHANNELS 3 Zrotation Yrotation Xrotation
							End Site #name: Head
							{
								OFFSET -0.019200 9.262405 2.362500
							}
						}
					}
					JOINT Spine2_LeftShoulder
					{
						OFFSET 0.000000 0.000000 0.000000
						CHANNELS 3 Zrotation Yrotation Xrotation
						JOINT LeftShoulder
						{
							OFFSET 5.616900 6.732201 -0.345700
							CHANNELS 3 Zrotation Yrotation Xrotation
							JOINT LeftArm
							{
								OFFSET 10.664888 -0.183372 -2.440700
								CHANNELS 3 Zrotation Yrotation Xrotation
								JOINT LeftForeArm
								{
									OFFSET 27.459126 0.000000 0.000000
									CHANNELS 3 Zrotation Yrotation Xrotation
									End Site #name: LeftHand
									{
										OFFSET 21.306858 0.000000 0.000000
									}
								}
							}
						}
					}
					JOINT Spine2_RightShoulder
					{
						OFFSET 0.000000 0.000000 0.000000
						CHANNELS 3 Zrotation Yrotation Xrotation
						JOINT RightShoulder
						{
							OFFSET -5.580300 6.737503 -0.344400
							CHANNELS 3 Zrotation Yrotation Xrotation
							JOINT RightArm
							{
								OFFSET -10.679335 -0.188484 -2.383900
								CHANNELS 3 Zrotation Yrotation Xrotation
								JOINT RightForeArm
								{
									OFFSET -27.503529 0.000000 0.000000
									CHANNELS 3 Zrotation Yrotation Xrotation
									End Site #name: RightHand
									{
										OFFSET -21.306808 0.000000 0.000000
									}
								}
							}
						}
					}
				}
			}
		}
	}
	JOINT Hips_LeftUpLeg
	{
		OFFSET 0.000000 0.000000 0.000000
		CHANNELS 3 Zrotation Yrotation Xrotation
		JOINT LeftUpLeg
		{
			OFFSET 6.857700 -6.739601 0.312100
			CHANNELS 3 Zrotation Yrotation Xrotation
			JOINT LeftLeg
			{
				OFFSET -0.367590 -34.731552 -4.572400
				CHANNELS 3 Zrotation Yrotation Xrotation
				End Site #name: LeftFoot
				{
					OFFSET 0.367590 -34.656704 -6.067400
				}
			}
		}
	}
	JOINT Hips_RightUpLeg
	{
		OFFSET 0.000000 0.000000 0.000000
		CHANNELS 3 Zrotation Yrotation Xrotation
		JOINT RightUpLeg
		{
			OFFSET -6.876100 -6.733299 0.301000
			CHANNELS 3 Zrotation Yrotation Xrotation
			JOINT RightLeg
			{
				OFFSET 0.347353 -34.795158 -4.515900
				CHANNELS 3 Zrotation Yrotation Xrotation
				End Site #name: RightFoot
				{
					OFFSET -0.347353 -34.589367 -6.070300
				}
			}
		}
	}
}
MOTION
Frames: 16
Frame Time: 0.041667
-9.020036 -18.544985 -15.963408 -6.603521 6.310173 -75.932585 -0.000000 0.000000 0.000000 1.392363 1.317041 3.555667 2.748334 2.891208 6.460393 0.000000 0.000000 0.000000 2.740382 2.589591 6.082949 1.391799 -6.662833 17.562639 2.456656 2.574846 7.039182 -3.340918 -4.332403 -8.115341 -61.914125 66.591806 -41.935493 -166.615097 -56.463859 158.850776 2.416226 2.814246 5.639677 18.771607 7.880969 1.792702 20.451230 -30.380056 58.039118 171.572705 49.635020 178.281739 0.000000 -0.000000 0.000000 10.226792 42.298991 -45.827438 2.670519 12.688384 38.591732 -0.000000 -0.000000 0.000000 -36.827964 -14.006192 7.672033 -10.132259 -4.781242 31.291615 
-8.897589 -22.583112 -17.527109 -6.837650 6.484918 -75.892709 0.000000 0.000000 0.000000 1.682099 2.176619 2.993217 3.422690 3.708871 5.698872 0.000000 0.000000 0.000000 3.283965 3.435082 5.496359 3.328698 -7.739199 14.879011 2.952564 3.239541 6.362988 -2.030068 -1.664688 -5.956118 -63.067414 67.317336 -45.339532 -167.449553 -55.822207 159.380165 2.856878 3.512081 4.903650 18.853496 5.640902 1.449014 23.666028 -19.305263 52.346981 161.177084 59.182084 170.876397 0.000000 -0.000000 0.000000 11.383469 37.589115 -35.853527 1.870082 13.361908 27.979423 -0.000000 -0.000000 0.000000 -36.051779 -12.958365 9.967631 -11.050675 -4.810556 36.912242 
-8.653840 -26.140061 -19.124651 -6.516810 5.828856 -76.181981 0.000000 0.000000 0.000000 2.085156 2.759389 2.581879 4.252472 4.032524 5.269034 0.000000 0.000000 0.000000 3.991309 3.655591 5.339904 5.709175 -8.582780 11.315148 3.720726 3.435198 5.981579 -0.873282 0.832761 -3.262518 -63.886409 67.313378 -47.949788 -166.735620 -56.452029 158.076246 3.637881 3.707003 4.675925 19.463413 3.885371 1.076674 27.353135 -7.091416 45.362582 136.561790 70.501949 147.462001 0.000000 -0.000000 0.000000 12.410075 34.965988 -27.342749 0.104475 13.480227 19.660206 0.000000 -0.000000 0.000000 -34.618133 -11.827407 10.003210 -11.556767 -4.293727 42.051847 
-8.282161 -29.273061 -20.832534 -5.915990 4.637159 -77.100499 0.000000 0.000000 0.000000 2.455009 2.978266 2.151758 5.156140 3.875346 5.121307 0.000000 0.000000 0.000000 4.842244 3.505620 5.354384 8.087364 -8.535936 1.242136 4.599903 3.228221 5.843388 0.074664 2.631409 -1.271265 -63.263563 66.267560 -48.182936 -164.855746 -57.960564 155.259148 4.528798 3.521312 4.832168 21.182044 0.945106 0.755050 30.681445 0.215175 39.923361 69.331961 74.905147 79.745941 0.000000 -0.000000 0.000000 15.011412 34.028198 -19.710042 -0.978413 13.220719 15.563945 0.000000 -0.000000 0.000000 -32.731160 -10.736765 8.167998 -11.996769 -3.360388 47.789918 
-7.804733 -32.050329 -22.720901 -4.861261 2.896809 -78.672629 0.000000 0.000000 0.000000 2.661479 2.527547 1.830228 6.007751 3.246329 5.152293 0.000000 0.000000 0.000000 5.630282 2.976117 5.474184 10.539567 -9.121379 -5.765906 5.406939 2.573532 5.850518 0.420935 3.850748 -0.932735 -61.660490 63.989686 -45.956916 -161.065452 -60.073319 150.318312 5.368216 3.000592 5.177342 23.586674 -2.704200 0.282900 31.488053 0.357889 38.982382 27.319446 61.307870 35.814361 0.000000 -0.000000 0.000000 17.752776 34.428493 -13.275665 -0.887362 12.609380 16.833963 0.000000 -0.000000 0.000000 -31.161637 -9.595214 5.735550 -12.269201 -1.936499 53.961520 
-7.279237 -34.491003 -24.866286 -2.928422 0.329945 -80.480208 0.000000 0.000000 0.000000 2.906179 1.429620 1.431710 6.586048 1.816356 5.081459 0.000000 0.000000 0.000000 6.299763 1.523696 4.927316 9.887234 -6.917157 -9.995453 6.053062 1.130435 5.448080 0.246079 4.751038 -0.841295 -61.373978 61.189329 -43.185239 -154.286293 -62.446869 142.863734 5.950432 1.931750 5.333376 25.375053 -5.575448 -0.084288 30.743625 -7.730859 40.240619 21.396623 55.929050 26.845837 0.000000 -0.000000 0.000000 20.271184 34.665391 -7.848373 -1.845321 9.350100 19.772106 0.000000 -0.000000 0.000000 -29.969428 -7.679709 4.033772 -12.887713 -0.301122 59.661481 
-6.768599 -36.515991 -27.306818 -0.852646 -2.036476 -82.446698 0.000000 0.000000 0.000000 3.160392 0.579117 0.963617 6.869021 -0.293050 4.572106 0.000000 0.000000 0.000000 6.681533 -0.499457 4.167096 5.887189 -3.895006 -11.260333 6.430548 -1.023036 4.546488 -0.617426 4.701699 -0.773339 -62.948218 58.671405 -40.717530 -146.939975 -64.173718 135.150321 6.373907 -0.292723 4.802761 26.612428 -7.541017 -0.540167 30.365458 -21.088086 41.526030 28.634686 64.872690 30.572825 0.000000 -0.000000 0.000000 21.677321 34.914767 -4.211636 -2.876175 6.842364 23.787759 0.000000 -0.000000 0.000000 -29.456588 -5.694853 1.900561 -13.119377 1.233348 64.056848 
-6.216553 -38.000065 -30.027310 0.824266 -3.849814 -84.629420 0.000000 0.000000 0.000000 3.175360 -0.259202 0.194903 6.914631 -2.713333 3.457803 0.000000 0.000000 0.000000 6.569087 -2.957970 3.396973 0.406591 -0.699716 -8.194828 6.521329 -2.975134 3.233365 -2.423544 3.142930 -0.559130 -65.803016 56.432220 -38.279114 -140.184768 -65.653208 128.559760 6.451189 -2.799014 3.704899 26.569541 -7.022766 -0.301095 35.659101 -37.567502 35.110252 58.048933 77.086857 57.166758 0.000000 -0.000000 0.000000 22.981545 34.835625 -1.981470 -3.604909 5.389535 28.466721 0.000000 -0.000000 0.000000 -29.058304 -3.650125 -0.210436 -12.762882 2.417629 67.207834 
-5.570203 -38.845711 -32.899651 1.824505 -5.011040 -86.873608 0.000000 0.000000 0.000000 2.872280 -1.118923 -0.485329 6.420265 -4.871869 2.507612 0.000000 0.000000 0.000000 6.098057 -4.716221 2.440267 -4.980551 2.816392 -0.915883 6.073719 -4.950457 1.958259 -5.460491 0.404950 -0.100528 -68.841390 54.734831 -36.324150 -134.814576 -66.858821 124.158733 6.150939 -4.915027 2.263596 24.340366 -4.941991 0.447254 42.853274 -47.472816 26.703430 129.089015 77.996197 125.755722 0.000000 -0.000000 0.000000 24.062158 34.646569 -0.675949 -3.905636 5.180697 32.138640 0.000000 -0.000000 0.000000 -28.452198 -1.681062 -2.303258 -11.459473 3.524911 69.397200 
-4.838923 -39.072666 -35.785685 2.052607 -5.767726 -88.831061 0.000000 0.000000 0.000000 2.280136 -1.805920 -0.946973 5.458347 -6.110694 1.975718 0.000000 0.000000 0.000000 5.087718 -6.109603 1.780534 -6.980522 4.594245 7.499833 5.074080 -6.612202 0.832866 -9.975497 -3.124620 0.620375 -70.288177 53.661075 -35.001249 -133.491869 -67.525707 124.358844 5.234571 -6.736783 1.407903 20.571248 -2.091842 1.081947 49.053083 -52.527083 21.677331 156.668979 69.774711 151.749477 0.000000 -0.000000 0.000000 25.393252 33.937482 0.793489 -3.917919 5.852017 33.844898 0.000000 -0.000000 0.000000 -27.464995 0.228672 -4.110696 -9.655950 4.336612 70.868830 
-4.072102 -38.852174 -38.581527 1.986265 -6.668092 -90.356879 0.000000 0.000000 0.000000 1.499054 -2.215497 -1.327661 3.834968 -6.769987 1.869822 0.000000 0.000000 0.000000 3.559062 -6.895897 1.464840 -6.273508 4.282995 12.938125 3.712461 -7.521279 0.350566 -14.306323 -7.014124 1.674071 -70.405858 54.013734 -34.174091 -137.463234 -67.461740 129.805678 3.875956 -7.744546 0.951798 16.671731 0.628103 1.542834 51.791729 -55.411072 22.646368 160.627211 66.066272 154.551926 0.000000 -0.000000 0.000000 26.993962 32.867716 2.692615 -3.562470 7.100196 33.530659 0.000000 -0.000000 0.000000 -26.183838 2.276699 -5.326391 -7.738430 4.736138 70.900127 
-3.299065 -38.413596 -41.192517 1.704115 -7.568028 -91.937580 0.000000 0.000000 0.000000 0.809231 -2.174680 -1.541152 2.128800 -6.608114 1.617960 0.000000 0.000000 0.000000 2.065681 -6.769305 1.047817 -4.751162 3.005355 15.534154 2.273357 -7.503189 -0.026492 -17.045745 -9.948269 2.656960 -69.307724 55.390428 -34.088370 -145.839767 -66.085380 139.006504 2.216699 -7.675363 0.788204 14.933923 2.016088 1.436436 50.888922 -57.315809 27.482686 156.941042 64.755948 149.864862 0.000000 -0.000000 0.000000 28.623394 31.571791 4.595026 -2.581104 8.844549 32.235186 0.000000 -0.000000 0.000000 -24.823451 4.364933 -6.334916 -6.271360 4.735571 70.758848 
-2.516246 -38.056479 -43.634523 1.349087 -8.298193 -93.164261 0.000000 0.000000 0.000000 0.459393 -1.728798 -1.958515 0.766451 -5.689799 1.332201 0.000000 0.000000 0.000000 0.804235 -5.725310 0.635632 -2.982975 1.949216 15.874965 0.865671 -6.558877 -0.526649 -17.787276 -11.332814 3.188712 -67.288437 56.466111 -33.755399 -154.776817 -63.678192 148.031354 0.909110 -6.409964 0.707836 14.252408 3.170185 1.580961 50.492151 -56.712846 29.789116 148.254945 64.461371 140.978252 0.000000 -0.000000 0.000000 29.978641 29.758801 6.423976 -0.646209 11.032972 30.978075 0.000000 -0.000000 0.000000 -23.690055 5.806442 -7.290995 -5.133472 4.487890 70.725769 
-1.753423 -37.969788 -45.941849 0.815089 -8.781027 -94.086632 0.000000 0.000000 0.000000 0.394391 -1.088027 -2.454782 -0.230834 -4.275419 1.001577 0.000000 0.000000 0.000000 -0.026794 -4.196545 -0.185692 -1.116083 1.923241 14.513076 -0.104626 -4.992771 -1.190220 -16.413078 -10.400886 2.918915 -64.077726 57.104130 -33.679674 -161.634570 -60.962113 154.556600 -0.107688 -4.504633 0.365468 14.423337 4.006614 1.658201 48.764878 -53.684622 30.225030 133.724788 64.770573 127.538837 0.000000 -0.000000 0.000000 30.238858 27.346070 8.329160 1.933839 13.111911 30.907715 0.000000 -0.000000 0.000000 -22.708987 6.946540 -8.127415 -4.015164 3.898222 72.221685 
-1.026827 -38.160446 -48.157539 0.075561 -9.075393 -94.978147 0.000000 0.000000 0.000000 0.571629 -0.362014 -2.974747 -0.807495 -2.384240 0.361846 0.000000 0.000000 0.000000 -0.445358 -2.556691 -1.146263 1.064454 2.534901 12.004341 -0.647959 -3.143237 -1.824659 -13.877074 -7.435374 2.057016 -58.871960 56.916654 -33.162571 -165.690725 -59.924198 158.222944 -0.806205 -2.564720 -0.297480 15.006590 4.158169 1.613182 44.734773 -45.123860 32.154816 115.522297 63.716403 111.826766 0.000000 -0.000000 0.000000 29.779132 24.284020 10.294070 3.951427 13.831729 31.344523 0.000000 -0.000000 0.000000 -21.958726 7.768608 -9.128779 -2.924489 3.281999 74.899040 
-0.319729 -38.543077 -50.336684 -0.934415 -9.225849 -95.928370 0.000000 0.000000 0.000000 0.941114 0.291521 -3.460616 -0.838466 -0.646449 -0.738590 0.000000 0.000000 0.000000 -0.484072 -0.816861 -2.450206 2.822532 4.124287 7.859330 -0.788134 -1.221789 -2.787704 -11.446949 -3.619590 1.037414 -51.279054 54.960583 -31.267090 -167.710151 -59.203423 160.070315 -0.975738 -0.613711 -1.026652 15.537572 4.060890 1.614478 40.752603 -30.402134 33.540541 88.701738 61.724243 87.977682 0.000000 -0.000000 0.000000 28.331017 20.632317 12.271477 4.562339 12.576183 31.775383 0.000000 -0.000000 0.000000 -21.675772 8.314035 -10.533724 -1.882204 2.692218 78.383840 
